<svg xmlns="http://www.w3.org/2000/svg" viewBox="0 0 351.87 401.04"><defs><style>.cls-1{fill:#fff;stroke:#000;stroke-miterlimit:10;}</style></defs><title>3D white</title><g id="Layer_2" data-name="Layer 2"><g id="Layer_2-2" data-name="Layer 2"><g id="_3D_Svg_White" data-name="3D Svg White"><g id="Right"><path class="cls-1" d="M349.55,102.62,178.47,201.39v45L300.32,176a6.75,6.75,0,0,1,10.13,5.85v84.7a20.23,20.23,0,0,1-10.13,17.54L178.47,354.43v46a16.12,16.12,0,0,0,5.51-1.93l79.67-46,77.59-44.8a20.26,20.26,0,0,0,10.13-17.54V111A20.35,20.35,0,0,0,349.55,102.62Z"/><path class="cls-1" d="M274,268.89a20.25,20.25,0,0,0,10.13-17.54V227.47A6.75,6.75,0,0,0,274,221.63l-95.52,55.14V324Z"/></g><g id="Left"><path class="cls-1" d="M10.63,182.8A6.75,6.75,0,0,0,.5,188.65v23.87a20.26,20.26,0,0,0,10.13,17.55l162.19,93.64V276.44Z"/><path class="cls-1" d="M10.63,260.45A6.75,6.75,0,0,0,.5,266.3v23.88a20.26,20.26,0,0,0,10.13,17.54l77.59,44.8,79.67,46a16,16,0,0,0,4.93,1.83V354.09Z"/><path class="cls-1" d="M2.2,102.89A20.17,20.17,0,0,0,.5,111v23.88a20.25,20.25,0,0,0,10.13,17.54l162.19,93.64V201.39Z"/></g><g id="Top"><path id="Top-2" data-name="Top" class="cls-1" d="M346.49,97.86a20,20,0,0,0-5.25-4.41L263.65,48.66,184,2.65a16.11,16.11,0,0,0-16.09,0l-79.67,46L10.63,93.45a20.27,20.27,0,0,0-5.44,4.63L175.65,196.5Z"/></g></g></g></g></svg>