<svg xmlns="http://www.w3.org/2000/svg" viewBox="0 0 350.87 399.95"><defs><style>.cls-1{fill:#1e1e1e;}</style></defs><title>3D black</title><g id="Layer_2" data-name="Layer 2"><g id="Layer_2-2" data-name="Layer 2"><g id="_3D_Svg_Black" data-name="3D Svg Black"><g id="Right"><path class="cls-1" d="M349.05,102.12,178,200.89v45L299.82,175.5A6.75,6.75,0,0,1,310,181.35v84.7a20.23,20.23,0,0,1-10.13,17.54L178,353.93v46a16.12,16.12,0,0,0,5.51-1.93l79.67-46,77.59-44.8a20.26,20.26,0,0,0,10.13-17.54V110.49A20.35,20.35,0,0,0,349.05,102.12Z"/><path class="cls-1" d="M273.49,268.39a20.25,20.25,0,0,0,10.13-17.54V227a6.75,6.75,0,0,0-10.13-5.84L178,276.27v47.27Z"/></g><g id="Left"><path class="cls-1" d="M10.13,182.3A6.75,6.75,0,0,0,0,188.15V212a20.26,20.26,0,0,0,10.13,17.55l162.19,93.64V275.94Z"/><path class="cls-1" d="M10.13,260A6.75,6.75,0,0,0,0,265.8v23.88a20.26,20.26,0,0,0,10.13,17.54L87.72,352l79.67,46a16,16,0,0,0,4.93,1.83V353.59Z"/><path class="cls-1" d="M1.7,102.39a20.17,20.17,0,0,0-1.7,8.1v23.88a20.25,20.25,0,0,0,10.13,17.54l162.19,93.64V200.89Z"/></g><g id="Top"><path class="cls-1" d="M346,97.36A20,20,0,0,0,340.74,93L263.15,48.16l-79.67-46a16.11,16.11,0,0,0-16.09,0l-79.67,46L10.13,93a20.27,20.27,0,0,0-5.44,4.63L175.15,196Z"/></g></g></g></g></svg>