<svg xmlns="http://www.w3.org/2000/svg" viewBox="0 0 568.51 57.2"><defs><style>.cls-1{fill:#1e1e1e;}</style></defs><title>3Dmensional</title><g id="Layer_2" data-name="Layer 2"><g id="Layer_2-2" data-name="Layer 2"><path class="cls-1" d="M51.58,12.12H2.15A2.15,2.15,0,0,1,0,10V2.15A2.15,2.15,0,0,1,2.15,0H51.58Zm0,33H2.15A2.15,2.15,0,0,0,0,47.23v7.82A2.15,2.15,0,0,0,2.15,57.2H51.58Zm0-22.54H2.15A2.15,2.15,0,0,0,0,24.69v7.82a2.15,2.15,0,0,0,2.15,2.15H51.58ZM55.25,57.2h36.8q14.73,0,14.72-14.3V14.3Q106.77,0,92.05,0H55.25Zm36.8-44.94c2.46,0,3.68.68,3.68,2V42.9c0,1.37-1.22,2.05-3.68,2.05H66.29V12.26Zm50,33.18L162.3,18.63V57.2h11V0H162L142.06,26.36,122.16,0H110.79V57.2h11V18.63ZM177.36,0V57.2h51.52V45H188.4V34.73h33.12V22.47H188.4V12.26h40.48V0Zm95.71,57.2h11.34V0h-11V38.53L244.26,0H232.89V57.2h11V18.63ZM303.14,0q-14.72,0-14.72,14.3v6.13q0,14.3,14.72,14.3h22.08c2.45,0,3.68.68,3.68,2V42.9c0,1.37-1.23,2.05-3.68,2.05H303.14c-2.45,0-3.68-.68-3.68-2.05v-2h-11v2q0,14.31,14.72,14.3h22.08q14.71,0,14.72-14.3V36.77q0-14.3-14.72-14.3H303.14c-2.45,0-3.68-.68-3.68-2V14.3c0-1.36,1.23-2,3.68-2h22.08c2.45,0,3.68.68,3.68,2v2h11v-2Q339.94,0,325.22,0ZM344,0V57.2h11V0ZM359,14.3V42.9q0,14.31,14.72,14.3H395.8q14.73,0,14.72-14.3V14.3Q410.52,0,395.8,0H373.72Q359,0,359,14.3Zm40.48,0V42.9c0,1.37-1.22,2.05-3.68,2.05H373.72c-2.45,0-3.68-.68-3.68-2.05V14.3c0-1.36,1.23-2,3.68-2H395.8C398.26,12.26,399.48,12.94,399.48,14.3Zm55.24,42.9h11.34V0H455V38.53L425.91,0H414.54V57.2h11V18.63Zm55.61-6.12L513,57.2h12.26L500.06,0H491.6L466.39,57.2h12.25l2.69-6.12Zm-14.5-32.86,9.09,20.6H486.74ZM536.64,45V0h-11V57.2h42.91V45Z"/></g></g></svg>